<svg version="1.1" id="Layer_1" xmlns="http://www.w3.org/2000/svg" xmlns:xlink="http://www.w3.org/1999/xlink" x="0px" y="0px"
	 width="100%" viewBox="0 0 512 512" enable-background="new 0 0 512 512" xml:space="preserve">
<path fill="#000000" opacity="1.000000" stroke="none" 
	d="
M1.000000,219.000000 
	C1.000000,146.362183 1.000000,73.724373 1.000000,1.043282 
	C171.570038,1.043282 342.140106,1.043282 513.000000,1.043282 
	C513.000000,121.688522 513.000000,242.377289 512.662659,363.838837 
	C511.489258,361.555450 510.714478,358.480957 509.807343,355.446014 
	C502.902985,332.345337 490.202087,313.120880 470.431915,299.198456 
	C448.219574,283.556274 423.007721,276.721985 396.029785,276.055908 
	C393.131622,275.984406 391.446411,275.207367 389.722382,272.599030 
	C383.220062,262.761658 375.364105,254.129059 365.902069,246.914948 
	C353.302277,237.308563 339.369843,230.694183 324.024994,226.429520 
	C323.671234,220.891602 323.318909,215.812485 323.006683,210.730881 
	C322.209381,197.752243 318.067932,185.643539 312.457489,174.147415 
	C304.900635,158.662964 294.115173,145.583145 280.463898,134.952026 
	C260.044739,119.050316 237.119690,110.491432 210.560669,111.110130 
	C201.119919,111.800117 191.897461,111.530800 183.207581,113.551590 
	C157.648544,119.495239 136.489029,132.807129 119.931541,153.445541 
	C105.003960,172.052322 97.194405,193.414551 95.122879,216.830933 
	C93.786781,231.934113 95.957779,246.876831 100.726089,261.368744 
	C106.656609,279.392853 116.681908,294.680115 130.279358,307.938263 
	C147.049332,324.289795 167.099335,333.695557 189.905212,338.380432 
	C189.950333,339.478149 189.919754,340.214233 189.447540,340.980438 
	C186.345016,341.073120 183.684113,341.135681 180.561584,341.107819 
	C170.199753,340.402954 160.431381,341.323730 151.032104,344.476898 
	C139.376236,348.387115 128.727615,354.524689 120.452957,363.502991 
	C114.162773,370.328094 108.444656,378.179443 104.462479,386.524017 
	C97.186363,401.771027 95.542542,418.168976 98.985237,434.891144 
	C101.846436,448.788788 107.674019,461.336578 117.317291,471.726013 
	C135.555374,491.375427 158.325821,499.830597 185.484131,497.890228 
	C259.086090,497.970520 332.224854,498.040802 405.363251,497.906982 
	C412.021790,497.894806 418.830200,497.233429 425.308197,495.741241 
	C449.959900,490.062683 470.840607,478.079010 487.260223,458.393097 
	C499.310364,443.945953 507.424591,427.841766 511.084930,409.424316 
	C511.199951,408.845520 512.338562,408.470184 513.000000,408.000000 
	C513.000000,442.983093 513.000000,477.966187 513.000000,512.974609 
	C342.432648,512.974609 171.865280,512.974609 1.000000,512.974609 
	C1.000000,419.311523 1.000000,325.622742 1.300818,231.159515 
	C4.062175,231.588837 6.504101,233.788971 8.986254,233.835327 
	C25.606150,234.145782 42.235466,234.090637 58.859737,233.937668 
	C63.444424,233.895493 67.236794,229.213943 66.999245,224.682648 
	C66.739220,219.722626 63.671818,217.004379 58.299110,217.002045 
	C44.998558,216.996246 31.693750,216.803482 18.399422,217.091095 
	C12.588568,217.216812 6.799151,218.333374 1.000000,219.000000 
M318.799622,126.699341 
	C320.224609,125.923294 321.923859,125.424583 323.032288,124.328438 
	C334.501923,112.985962 346.017731,101.683334 357.201935,90.062813 
	C361.236450,85.870926 360.870239,79.927620 357.339447,76.852661 
	C353.711823,73.693298 348.219269,74.285049 344.124390,78.368080 
	C333.286438,89.174690 322.554413,100.089035 311.612671,110.789169 
	C308.290497,114.037971 307.024841,117.621696 308.459564,121.889618 
	C309.980438,126.413872 313.952240,126.954407 318.799622,126.699341 
M63.652374,374.170624 
	C68.714867,376.442566 72.812759,374.679688 76.432526,371.067871 
	C86.686920,360.836121 96.938919,350.601868 107.148445,340.325470 
	C108.161835,339.305450 108.931572,338.024597 109.720764,336.804260 
	C111.846718,333.516876 111.383911,327.560303 108.885422,325.455353 
	C105.056175,322.229248 100.269081,322.322296 96.619278,325.943726 
	C85.036621,337.436401 73.494843,348.970764 62.000980,360.552246 
	C57.627163,364.959412 58.003326,369.632385 63.652374,374.170624 
M218.000031,51.500000 
	C217.999573,42.185173 218.094894,32.868938 217.957718,23.556126 
	C217.890457,18.989201 214.555344,16.025469 210.002762,16.000647 
	C204.824844,15.972415 201.107925,18.590284 201.067017,23.042648 
	C200.908081,40.340168 200.922073,57.640663 201.061737,74.938522 
	C201.094818,79.035049 205.696609,83.032951 209.570633,82.981308 
	C213.657654,82.926819 217.968689,78.613907 217.989517,74.456345 
	C218.026169,67.137726 217.999924,59.818794 218.000031,51.500000 
M358.111603,217.001450 
	C353.320038,218.269760 351.530701,221.795822 352.107971,226.246414 
	C352.660919,230.509705 355.570648,233.795624 359.869843,233.871445 
	C376.664978,234.167709 393.470612,234.139893 410.267517,233.897644 
	C415.348969,233.824356 419.311859,229.261551 418.959930,225.084579 
	C418.489746,219.504807 415.554443,217.006287 409.402985,217.003113 
	C392.602539,216.994461 375.802094,217.000168 358.111603,217.001450 
M99.666245,126.177628 
	C103.904846,128.065643 107.683540,126.818436 109.778618,123.161713 
	C111.826828,119.586830 112.230087,115.559013 108.587738,111.984444 
	C96.844284,100.459526 85.281067,88.751091 73.624886,77.136978 
	C70.891777,74.413734 64.601082,74.158279 61.939865,76.571609 
	C58.434334,79.750610 57.782158,85.142830 61.077011,88.462486 
	C73.589706,101.069389 86.286354,113.493713 99.666245,126.177628 
z"/>
<path fill="#C8EFFE" opacity="1.000000" stroke="none" 
	d="
M181.023224,341.198242 
	C183.684113,341.135681 186.345016,341.073120 189.922882,340.995850 
	C195.826523,340.987061 200.815781,340.898743 205.798828,341.035645 
	C208.612717,341.112976 209.981171,340.404572 210.062622,337.188599 
	C210.494568,320.132751 213.711548,303.648590 220.842316,288.044983 
	C234.320663,258.551392 255.869705,238.117966 287.389099,228.979477 
	C292.883636,227.386414 298.500916,226.216766 304.508453,224.816895 
	C311.318481,225.483902 317.681610,226.185532 324.044708,226.887177 
	C339.369843,230.694183 353.302277,237.308563 365.902069,246.914948 
	C375.364105,254.129059 383.220062,262.761658 389.722382,272.599030 
	C391.446411,275.207367 393.131622,275.984406 396.029785,276.055908 
	C423.007721,276.721985 448.219574,283.556274 470.431915,299.198456 
	C490.202087,313.120880 502.902985,332.345337 509.807343,355.446014 
	C510.714478,358.480957 511.489258,361.555450 512.662659,364.305817 
	C513.000000,378.354218 513.000000,392.708466 513.000000,407.531342 
	C512.338562,408.470184 511.199951,408.845520 511.084930,409.424316 
	C507.424591,427.841766 499.310364,443.945953 487.260223,458.393097 
	C470.840607,478.079010 449.959900,490.062683 425.308197,495.741241 
	C418.830200,497.233429 412.021790,497.894806 405.363251,497.906982 
	C332.224854,498.040802 259.086090,497.970520 185.369171,497.536774 
	C184.260544,496.774445 183.764755,496.208191 183.194748,496.119598 
	C162.249084,492.864899 145.446228,482.411835 133.186020,465.465302 
	C114.201408,439.223999 112.465591,410.891937 127.108490,382.355865 
	C137.419617,362.261536 154.494751,349.431885 176.553055,343.593323 
	C178.143036,343.172485 179.537720,342.013824 181.023224,341.198242 
z"/>
<path fill="#FEA832" opacity="1.000000" stroke="none" 
	d="
M1.000000,219.460632 
	C6.799151,218.333374 12.588568,217.216812 18.399422,217.091095 
	C31.693750,216.803482 44.998558,216.996246 58.299110,217.002045 
	C63.671818,217.004379 66.739220,219.722626 66.999245,224.682648 
	C67.236794,229.213943 63.444424,233.895493 58.859737,233.937668 
	C42.235466,234.090637 25.606150,234.145782 8.986254,233.835327 
	C6.504101,233.788971 4.062175,231.588837 1.300818,230.692535 
	C1.000000,227.307098 1.000000,223.614182 1.000000,219.460632 
z"/>
<path fill="#FFD23B" opacity="1.000000" stroke="none" 
	d="
M324.024994,226.429520 
	C317.681610,226.185532 311.318481,225.483902 304.146851,224.629745 
	C298.529846,224.641602 293.707611,224.627930 288.915192,224.999100 
	C256.592712,227.502365 230.965805,242.067520 211.975479,268.238983 
	C198.193451,287.232635 192.226913,309.012238 189.555344,331.959412 
	C174.445282,326.538849 161.401016,318.241119 150.179398,307.450714 
	C139.343613,297.031342 130.788254,284.818634 124.856430,270.819580 
	C115.595627,248.964172 112.847321,226.460297 117.467606,203.156097 
	C122.202271,179.274994 133.443848,159.047699 151.155853,142.200272 
	C166.393387,127.706520 184.125443,118.370422 204.557205,113.837975 
	C206.797287,113.341057 208.871292,112.095558 211.022324,111.197266 
	C237.119690,110.491432 260.044739,119.050316 280.463898,134.952026 
	C294.115173,145.583145 304.900635,158.662964 312.457489,174.147415 
	C318.067932,185.643539 322.209381,197.752243 323.006683,210.730881 
	C323.318909,215.812485 323.671234,220.891602 324.024994,226.429520 
z"/>
<path fill="#E7BE35" opacity="1.000000" stroke="none" 
	d="
M210.560669,111.110123 
	C208.871292,112.095558 206.797287,113.341057 204.557205,113.837975 
	C184.125443,118.370422 166.393387,127.706520 151.155853,142.200272 
	C133.443848,159.047699 122.202271,179.274994 117.467606,203.156097 
	C112.847321,226.460297 115.595627,248.964172 124.856430,270.819580 
	C130.788254,284.818634 139.343613,297.031342 150.179398,307.450714 
	C161.401016,318.241119 174.445282,326.538849 189.620972,332.384857 
	C189.972885,334.583801 189.901199,336.301331 189.829529,338.018829 
	C167.099335,333.695557 147.049332,324.289795 130.279358,307.938263 
	C116.681908,294.680115 106.656609,279.392853 100.726089,261.368744 
	C95.957779,246.876831 93.786781,231.934113 95.122879,216.830933 
	C97.194405,193.414551 105.003960,172.052322 119.931541,153.445541 
	C136.489029,132.807129 157.648544,119.495239 183.207581,113.551590 
	C191.897461,111.530800 201.119919,111.800117 210.560669,111.110123 
z"/>
<path fill="#B5D8E6" opacity="1.000000" stroke="none" 
	d="
M180.561584,341.107819 
	C179.537720,342.013824 178.143036,343.172485 176.553055,343.593323 
	C154.494751,349.431885 137.419617,362.261536 127.108490,382.355865 
	C112.465591,410.891937 114.201408,439.223999 133.186020,465.465302 
	C145.446228,482.411835 162.249084,492.864899 183.194748,496.119598 
	C183.764755,496.208191 184.260544,496.774445 184.905899,497.471405 
	C158.325821,499.830597 135.555374,491.375427 117.317291,471.726013 
	C107.674019,461.336578 101.846436,448.788788 98.985237,434.891144 
	C95.542542,418.168976 97.186363,401.771027 104.462479,386.524017 
	C108.444656,378.179443 114.162773,370.328094 120.452957,363.502991 
	C128.727615,354.524689 139.376236,348.387115 151.032104,344.476898 
	C160.431381,341.323730 170.199753,340.402954 180.561584,341.107819 
z"/>
<path fill="#B5D7E4" opacity="1.000000" stroke="none" 
	d="
M189.905212,338.380432 
	C189.901199,336.301331 189.972885,334.583801 189.978943,332.440857 
	C192.226913,309.012238 198.193451,287.232635 211.975479,268.238983 
	C230.965805,242.067520 256.592712,227.502365 288.915192,224.999100 
	C293.707611,224.627930 298.529846,224.641602 303.699890,224.664398 
	C298.500916,226.216766 292.883636,227.386414 287.389099,228.979477 
	C255.869705,238.117966 234.320663,258.551392 220.842316,288.044983 
	C213.711548,303.648590 210.494568,320.132751 210.062622,337.188599 
	C209.981171,340.404572 208.612717,341.112976 205.798828,341.035645 
	C200.815781,340.898743 195.826523,340.987061 190.364532,340.965759 
	C189.919754,340.214233 189.950333,339.478149 189.905212,338.380432 
z"/>
<path fill="#FEA732" opacity="1.000000" stroke="none" 
	d="
M318.422241,126.830978 
	C313.952240,126.954407 309.980438,126.413872 308.459564,121.889618 
	C307.024841,117.621696 308.290497,114.037971 311.612671,110.789169 
	C322.554413,100.089035 333.286438,89.174690 344.124390,78.368080 
	C348.219269,74.285049 353.711823,73.693298 357.339447,76.852661 
	C360.870239,79.927620 361.236450,85.870926 357.201935,90.062813 
	C346.017731,101.683334 334.501923,112.985962 323.032288,124.328438 
	C321.923859,125.424583 320.224609,125.923294 318.422241,126.830978 
z"/>
<path fill="#FEA932" opacity="1.000000" stroke="none" 
	d="
M63.253738,374.071655 
	C58.003326,369.632385 57.627163,364.959412 62.000980,360.552246 
	C73.494843,348.970764 85.036621,337.436401 96.619278,325.943726 
	C100.269081,322.322296 105.056175,322.229248 108.885422,325.455353 
	C111.383911,327.560303 111.846718,333.516876 109.720764,336.804260 
	C108.931572,338.024597 108.161835,339.305450 107.148445,340.325470 
	C96.938919,350.601868 86.686920,360.836121 76.432526,371.067871 
	C72.812759,374.679688 68.714867,376.442566 63.253738,374.071655 
z"/>
<path fill="#FEA832" opacity="1.000000" stroke="none" 
	d="
M218.000031,51.999996 
	C217.999924,59.818794 218.026169,67.137726 217.989517,74.456345 
	C217.968689,78.613907 213.657654,82.926819 209.570633,82.981308 
	C205.696609,83.032951 201.094818,79.035049 201.061737,74.938522 
	C200.922073,57.640663 200.908081,40.340168 201.067017,23.042648 
	C201.107925,18.590284 204.824844,15.972415 210.002762,16.000647 
	C214.555344,16.025469 217.890457,18.989201 217.957718,23.556126 
	C218.094894,32.868938 217.999573,42.185173 218.000031,51.999996 
z"/>
<path fill="#FEA832" opacity="1.000000" stroke="none" 
	d="
M358.556641,217.000824 
	C375.802094,217.000168 392.602539,216.994461 409.402985,217.003113 
	C415.554443,217.006287 418.489746,219.504807 418.959930,225.084579 
	C419.311859,229.261551 415.348969,233.824356 410.267517,233.897644 
	C393.470612,234.139893 376.664978,234.167709 359.869843,233.871445 
	C355.570648,233.795624 352.660919,230.509705 352.107971,226.246414 
	C351.530701,221.795822 353.320038,218.269760 358.556641,217.000824 
z"/>
<path fill="#FEA832" opacity="1.000000" stroke="none" 
	d="
M99.290237,126.081963 
	C86.286354,113.493713 73.589706,101.069389 61.077011,88.462486 
	C57.782158,85.142830 58.434334,79.750610 61.939865,76.571609 
	C64.601082,74.158279 70.891777,74.413734 73.624886,77.136978 
	C85.281067,88.751091 96.844284,100.459526 108.587738,111.984444 
	C112.230087,115.559013 111.826828,119.586830 109.778618,123.161713 
	C107.683540,126.818436 103.904846,128.065643 99.290237,126.081963 
z"/>
</svg>